<mxfile host="65bd71144e">
    <diagram id="rQunGOh2trCgD830Ix4a" name="example">
        <mxGraphModel dx="835" dy="422" grid="1" gridSize="10" guides="1" tooltips="1" connect="1" arrows="1" fold="1" page="1" pageScale="1" pageWidth="850" pageHeight="1100" math="0" shadow="0">
            <root>
                <mxCell id="0"/>
                <mxCell id="1" parent="0"/>
                <mxCell id="2" value="遥控器控制模块" style="rounded=0;whiteSpace=wrap;html=1;align=left;verticalAlign=top;" parent="1" vertex="1">
                    <mxGeometry x="150" y="440" width="400" height="260" as="geometry"/>
                </mxCell>
                <mxCell id="3" value="室内系统" style="rounded=0;whiteSpace=wrap;html=1;align=left;verticalAlign=top;" parent="1" vertex="1">
                    <mxGeometry x="120" y="40" width="460" height="290" as="geometry"/>
                </mxCell>
                <mxCell id="4" value="空调内机" style="rounded=0;whiteSpace=wrap;html=1;align=left;horizontal=1;verticalAlign=top;" parent="1" vertex="1">
                    <mxGeometry x="410" y="70" width="160" height="240" as="geometry"/>
                </mxCell>
                <mxCell id="5" value="遥控器" style="rounded=0;whiteSpace=wrap;html=1;" parent="1" vertex="1">
                    <mxGeometry x="250" y="260" width="120" height="40" as="geometry"/>
                </mxCell>
                <mxCell id="6" style="edgeStyle=none;html=1;entryX=0;entryY=0.5;entryDx=0;entryDy=0;exitX=1;exitY=0.5;exitDx=0;exitDy=0;startArrow=classic;startFill=1;" parent="1" source="7" target="9" edge="1">
                    <mxGeometry relative="1" as="geometry"/>
                </mxCell>
                <mxCell id="7" value="手机端App" style="rounded=0;whiteSpace=wrap;html=1;" parent="1" vertex="1">
                    <mxGeometry x="130" y="130" width="80" height="40" as="geometry"/>
                </mxCell>
                <mxCell id="8" style="edgeStyle=none;html=1;entryX=0;entryY=0.5;entryDx=0;entryDy=0;exitX=1;exitY=0.5;exitDx=0;exitDy=0;startArrow=classic;startFill=1;" parent="1" source="9" target="13" edge="1">
                    <mxGeometry relative="1" as="geometry"/>
                </mxCell>
                <mxCell id="9" value="云端服务器" style="rounded=0;whiteSpace=wrap;html=1;" parent="1" vertex="1">
                    <mxGeometry x="250" y="130" width="120" height="40" as="geometry"/>
                </mxCell>
                <mxCell id="10" value="" style="endArrow=classic;html=1;exitX=1;exitY=0.5;exitDx=0;exitDy=0;" parent="1" source="5" target="14" edge="1">
                    <mxGeometry width="50" height="50" relative="1" as="geometry">
                        <mxPoint x="330" y="410" as="sourcePoint"/>
                        <mxPoint x="380" y="360" as="targetPoint"/>
                    </mxGeometry>
                </mxCell>
                <mxCell id="11" value="主机控制板" style="rounded=0;whiteSpace=wrap;html=1;" parent="1" vertex="1">
                    <mxGeometry x="420" y="190" width="140" height="60" as="geometry"/>
                </mxCell>
                <mxCell id="12" value="控制&lt;div&gt;面板&lt;/div&gt;" style="rounded=0;whiteSpace=wrap;html=1;" parent="1" vertex="1">
                    <mxGeometry x="500" y="120" width="60" height="60" as="geometry"/>
                </mxCell>
                <mxCell id="13" value="WIFI模块" style="rounded=0;whiteSpace=wrap;html=1;" parent="1" vertex="1">
                    <mxGeometry x="420" y="120" width="70" height="60" as="geometry"/>
                </mxCell>
                <mxCell id="14" value="红外接收" style="rounded=0;whiteSpace=wrap;html=1;" parent="1" vertex="1">
                    <mxGeometry x="420" y="260" width="70" height="40" as="geometry"/>
                </mxCell>
                <mxCell id="15" value="外机&lt;div&gt;通讯&lt;/div&gt;" style="rounded=0;whiteSpace=wrap;html=1;" parent="1" vertex="1">
                    <mxGeometry x="500" y="260" width="60" height="40" as="geometry"/>
                </mxCell>
                <mxCell id="16" style="edgeStyle=none;html=1;entryX=0.5;entryY=0;entryDx=0;entryDy=0;exitX=1;exitY=0.5;exitDx=0;exitDy=0;startArrow=classic;startFill=1;" parent="1" source="17" target="9" edge="1">
                    <mxGeometry relative="1" as="geometry"/>
                </mxCell>
                <mxCell id="17" value="语音音箱" style="rounded=0;whiteSpace=wrap;html=1;" parent="1" vertex="1">
                    <mxGeometry x="130" y="70" width="80" height="40" as="geometry"/>
                </mxCell>
                <mxCell id="18" value="空调外机机" style="rounded=0;whiteSpace=wrap;html=1;align=left;horizontal=1;verticalAlign=top;" parent="1" vertex="1">
                    <mxGeometry x="610" y="150" width="150" height="180" as="geometry"/>
                </mxCell>
                <mxCell id="19" value="&lt;div&gt;通讯&lt;/div&gt;&lt;div&gt;模块&lt;/div&gt;" style="rounded=0;whiteSpace=wrap;html=1;" parent="1" vertex="1">
                    <mxGeometry x="620" y="260" width="130" height="40" as="geometry"/>
                </mxCell>
                <mxCell id="20" value="&lt;div&gt;控制模块&lt;/div&gt;&lt;div&gt;(压缩机，风扇控制)&lt;/div&gt;" style="rounded=0;whiteSpace=wrap;html=1;" parent="1" vertex="1">
                    <mxGeometry x="620" y="190" width="130" height="60" as="geometry"/>
                </mxCell>
                <mxCell id="21" value="" style="endArrow=classic;startArrow=classic;html=1;entryX=0;entryY=0.5;entryDx=0;entryDy=0;exitX=1;exitY=0.5;exitDx=0;exitDy=0;" parent="1" source="15" target="19" edge="1">
                    <mxGeometry width="50" height="50" relative="1" as="geometry">
                        <mxPoint x="460" y="310" as="sourcePoint"/>
                        <mxPoint x="510" y="260" as="targetPoint"/>
                    </mxGeometry>
                </mxCell>
                <mxCell id="22" style="edgeStyle=none;html=1;entryX=0;entryY=0.5;entryDx=0;entryDy=0;exitX=1;exitY=0.5;exitDx=0;exitDy=0;" parent="1" source="24" target="25" edge="1">
                    <mxGeometry relative="1" as="geometry"/>
                </mxCell>
                <mxCell id="23" style="edgeStyle=none;html=1;exitX=1;exitY=0.5;exitDx=0;exitDy=0;entryX=0;entryY=0.5;entryDx=0;entryDy=0;" parent="1" source="24" target="26" edge="1">
                    <mxGeometry relative="1" as="geometry"/>
                </mxCell>
                <mxCell id="24" value="遥控器主控" style="rounded=0;whiteSpace=wrap;html=1;" parent="1" vertex="1">
                    <mxGeometry x="280" y="480" width="120" height="200" as="geometry"/>
                </mxCell>
                <mxCell id="25" value="UI界面显示" style="rounded=0;whiteSpace=wrap;html=1;" parent="1" vertex="1">
                    <mxGeometry x="440" y="480" width="80" height="80" as="geometry"/>
                </mxCell>
                <mxCell id="26" value="红外输出" style="rounded=0;whiteSpace=wrap;html=1;" parent="1" vertex="1">
                    <mxGeometry x="440" y="600" width="80" height="80" as="geometry"/>
                </mxCell>
                <mxCell id="27" style="edgeStyle=none;html=1;" parent="1" source="28" target="24" edge="1">
                    <mxGeometry relative="1" as="geometry"/>
                </mxCell>
                <mxCell id="28" value="按键输入" style="rounded=0;whiteSpace=wrap;html=1;" parent="1" vertex="1">
                    <mxGeometry x="160" y="520" width="80" height="120" as="geometry"/>
                </mxCell>
                <mxCell id="29" value="空调外机" style="rounded=0;whiteSpace=wrap;html=1;align=left;verticalAlign=top;" parent="1" vertex="1">
                    <mxGeometry x="205" y="1180" width="400" height="260" as="geometry"/>
                </mxCell>
                <mxCell id="30" style="edgeStyle=none;html=1;entryX=0;entryY=0.5;entryDx=0;entryDy=0;exitX=1;exitY=0.5;exitDx=0;exitDy=0;" parent="1" source="32" target="33" edge="1">
                    <mxGeometry relative="1" as="geometry"/>
                </mxCell>
                <mxCell id="31" style="edgeStyle=none;html=1;exitX=1;exitY=0.5;exitDx=0;exitDy=0;entryX=0;entryY=0.5;entryDx=0;entryDy=0;" parent="1" source="32" target="34" edge="1">
                    <mxGeometry relative="1" as="geometry"/>
                </mxCell>
                <mxCell id="32" value="空调外机主控" style="rounded=0;whiteSpace=wrap;html=1;" parent="1" vertex="1">
                    <mxGeometry x="335" y="1220" width="120" height="200" as="geometry"/>
                </mxCell>
                <mxCell id="33" value="风扇控制" style="rounded=0;whiteSpace=wrap;html=1;" parent="1" vertex="1">
                    <mxGeometry x="495" y="1220" width="80" height="80" as="geometry"/>
                </mxCell>
                <mxCell id="34" value="压缩机控制" style="rounded=0;whiteSpace=wrap;html=1;" parent="1" vertex="1">
                    <mxGeometry x="495" y="1340" width="80" height="80" as="geometry"/>
                </mxCell>
                <mxCell id="35" style="edgeStyle=none;html=1;" parent="1" source="36" target="32" edge="1">
                    <mxGeometry relative="1" as="geometry"/>
                </mxCell>
                <mxCell id="36" value="通讯模块" style="rounded=0;whiteSpace=wrap;html=1;" parent="1" vertex="1">
                    <mxGeometry x="215" y="1260" width="80" height="120" as="geometry"/>
                </mxCell>
                <mxCell id="37" value="空调内机" style="rounded=0;whiteSpace=wrap;html=1;align=left;verticalAlign=top;" parent="1" vertex="1">
                    <mxGeometry x="215" y="1570" width="380" height="250" as="geometry"/>
                </mxCell>
                <mxCell id="38" style="edgeStyle=none;html=1;entryX=1;entryY=0.5;entryDx=0;entryDy=0;exitX=0;exitY=0.5;exitDx=0;exitDy=0;startArrow=classic;startFill=1;endArrow=none;endFill=0;" parent="1" source="41" target="42" edge="1">
                    <mxGeometry relative="1" as="geometry"/>
                </mxCell>
                <mxCell id="39" style="edgeStyle=none;html=1;exitX=1;exitY=0.5;exitDx=0;exitDy=0;entryX=0;entryY=0.5;entryDx=0;entryDy=0;startArrow=classic;startFill=1;" parent="1" source="41" target="43" edge="1">
                    <mxGeometry relative="1" as="geometry"/>
                </mxCell>
                <mxCell id="40" style="edgeStyle=none;html=1;entryX=0;entryY=0.5;entryDx=0;entryDy=0;" parent="1" target="48" edge="1">
                    <mxGeometry relative="1" as="geometry">
                        <mxPoint x="465" y="1710" as="sourcePoint"/>
                    </mxGeometry>
                </mxCell>
                <mxCell id="41" value="空调外机主控" style="rounded=0;whiteSpace=wrap;html=1;" parent="1" vertex="1">
                    <mxGeometry x="345" y="1610" width="120" height="200" as="geometry"/>
                </mxCell>
                <mxCell id="42" value="红外接收解析" style="rounded=0;whiteSpace=wrap;html=1;" parent="1" vertex="1">
                    <mxGeometry x="225" y="1610" width="80" height="60" as="geometry"/>
                </mxCell>
                <mxCell id="43" value="空调外机通讯" style="rounded=0;whiteSpace=wrap;html=1;" parent="1" vertex="1">
                    <mxGeometry x="505" y="1730" width="80" height="80" as="geometry"/>
                </mxCell>
                <mxCell id="44" style="edgeStyle=none;html=1;entryX=0;entryY=0.5;entryDx=0;entryDy=0;startArrow=blockThin;startFill=1;" parent="1" source="45" target="41" edge="1">
                    <mxGeometry relative="1" as="geometry"/>
                </mxCell>
                <mxCell id="45" value="WIFI通讯组网客户端" style="rounded=0;whiteSpace=wrap;html=1;" parent="1" vertex="1">
                    <mxGeometry x="225" y="1680" width="80" height="60" as="geometry"/>
                </mxCell>
                <mxCell id="46" style="edgeStyle=none;html=1;entryX=0;entryY=0.5;entryDx=0;entryDy=0;exitX=1;exitY=0.5;exitDx=0;exitDy=0;" parent="1" source="47" target="41" edge="1">
                    <mxGeometry relative="1" as="geometry"/>
                </mxCell>
                <mxCell id="47" value="面板按键" style="rounded=0;whiteSpace=wrap;html=1;" parent="1" vertex="1">
                    <mxGeometry x="225" y="1750" width="80" height="60" as="geometry"/>
                </mxCell>
                <mxCell id="48" value="面板UI显示" style="rounded=0;whiteSpace=wrap;html=1;" parent="1" vertex="1">
                    <mxGeometry x="505" y="1610" width="80" height="80" as="geometry"/>
                </mxCell>
                <mxCell id="49" value="" style="shape=flexArrow;endArrow=classic;startArrow=classic;html=1;width=6;" parent="1" edge="1">
                    <mxGeometry width="100" height="100" relative="1" as="geometry">
                        <mxPoint x="123" y="1318" as="sourcePoint"/>
                        <mxPoint x="216" y="1318" as="targetPoint"/>
                    </mxGeometry>
                </mxCell>
                <mxCell id="50" value="空调内机交互" style="text;html=1;align=center;verticalAlign=middle;whiteSpace=wrap;rounded=0;" parent="1" vertex="1">
                    <mxGeometry x="110" y="1275" width="79" height="30" as="geometry"/>
                </mxCell>
                <mxCell id="51" value="" style="shape=flexArrow;endArrow=classic;startArrow=none;html=1;width=6;startFill=0;" parent="1" edge="1">
                    <mxGeometry width="100" height="100" relative="1" as="geometry">
                        <mxPoint x="132" y="1642" as="sourcePoint"/>
                        <mxPoint x="225" y="1642" as="targetPoint"/>
                    </mxGeometry>
                </mxCell>
                <mxCell id="52" value="红外输入" style="text;html=1;align=center;verticalAlign=middle;whiteSpace=wrap;rounded=0;" parent="1" vertex="1">
                    <mxGeometry x="139" y="1603" width="60" height="30" as="geometry"/>
                </mxCell>
                <mxCell id="53" value="" style="shape=flexArrow;endArrow=classic;startArrow=classic;html=1;width=6;" parent="1" edge="1">
                    <mxGeometry width="100" height="100" relative="1" as="geometry">
                        <mxPoint x="585" y="1773" as="sourcePoint"/>
                        <mxPoint x="678" y="1773" as="targetPoint"/>
                    </mxGeometry>
                </mxCell>
                <mxCell id="54" value="空调外机交互" style="text;html=1;align=center;verticalAlign=middle;whiteSpace=wrap;rounded=0;" parent="1" vertex="1">
                    <mxGeometry x="601" y="1722" width="79" height="30" as="geometry"/>
                </mxCell>
            </root>
        </mxGraphModel>
    </diagram>
    <diagram id="8LIeb_9deH-BiA1It6eW" name="modbus">
        <mxGraphModel dx="1050" dy="-303" grid="1" gridSize="10" guides="1" tooltips="1" connect="1" arrows="1" fold="1" page="1" pageScale="1" pageWidth="850" pageHeight="1100" math="0" shadow="0">
            <root>
                <mxCell id="0"/>
                <mxCell id="1" parent="0"/>
                <mxCell id="wFoNoF2azF-VqJE6fyD9-1" value="" style="rounded=0;whiteSpace=wrap;html=1;" parent="1" vertex="1">
                    <mxGeometry x="200" y="1340" width="450" height="390" as="geometry"/>
                </mxCell>
                <mxCell id="wFoNoF2azF-VqJE6fyD9-2" style="edgeStyle=none;html=1;exitX=0.25;exitY=1;exitDx=0;exitDy=0;entryX=0.25;entryY=0;entryDx=0;entryDy=0;" parent="1" source="wFoNoF2azF-VqJE6fyD9-3" target="wFoNoF2azF-VqJE6fyD9-6" edge="1">
                    <mxGeometry relative="1" as="geometry"/>
                </mxCell>
                <mxCell id="wFoNoF2azF-VqJE6fyD9-3" value="Modbus App&lt;div&gt;（寄存器管理)&lt;/div&gt;" style="rounded=0;whiteSpace=wrap;html=1;" parent="1" vertex="1">
                    <mxGeometry x="250" y="1410" width="120" height="60" as="geometry"/>
                </mxCell>
                <mxCell id="wFoNoF2azF-VqJE6fyD9-4" style="edgeStyle=none;html=1;exitX=0.25;exitY=1;exitDx=0;exitDy=0;entryX=0.25;entryY=0;entryDx=0;entryDy=0;" parent="1" source="wFoNoF2azF-VqJE6fyD9-6" target="wFoNoF2azF-VqJE6fyD9-9" edge="1">
                    <mxGeometry relative="1" as="geometry"/>
                </mxCell>
                <mxCell id="wFoNoF2azF-VqJE6fyD9-5" style="edgeStyle=none;html=1;exitX=0.75;exitY=0;exitDx=0;exitDy=0;entryX=0.75;entryY=1;entryDx=0;entryDy=0;" parent="1" source="wFoNoF2azF-VqJE6fyD9-6" target="wFoNoF2azF-VqJE6fyD9-3" edge="1">
                    <mxGeometry relative="1" as="geometry">
                        <mxPoint x="342" y="1491" as="targetPoint"/>
                    </mxGeometry>
                </mxCell>
                <mxCell id="wFoNoF2azF-VqJE6fyD9-6" value="Modbus协议层" style="rounded=0;whiteSpace=wrap;html=1;" parent="1" vertex="1">
                    <mxGeometry x="250" y="1530" width="120" height="60" as="geometry"/>
                </mxCell>
                <mxCell id="wFoNoF2azF-VqJE6fyD9-7" style="edgeStyle=none;html=1;exitX=1;exitY=0.75;exitDx=0;exitDy=0;entryX=0;entryY=0.75;entryDx=0;entryDy=0;" parent="1" source="wFoNoF2azF-VqJE6fyD9-9" target="wFoNoF2azF-VqJE6fyD9-18" edge="1">
                    <mxGeometry relative="1" as="geometry"/>
                </mxCell>
                <mxCell id="wFoNoF2azF-VqJE6fyD9-8" style="edgeStyle=none;html=1;exitX=0.75;exitY=0;exitDx=0;exitDy=0;entryX=0.75;entryY=1;entryDx=0;entryDy=0;" parent="1" source="wFoNoF2azF-VqJE6fyD9-9" target="wFoNoF2azF-VqJE6fyD9-6" edge="1">
                    <mxGeometry relative="1" as="geometry"/>
                </mxCell>
                <mxCell id="wFoNoF2azF-VqJE6fyD9-9" value="Modbus物理层&lt;div&gt;(Port Interface tcp/serial)&lt;/div&gt;" style="rounded=0;whiteSpace=wrap;html=1;" parent="1" vertex="1">
                    <mxGeometry x="250" y="1648" width="120" height="60" as="geometry"/>
                </mxCell>
                <mxCell id="wFoNoF2azF-VqJE6fyD9-10" value="Master" style="text;html=1;align=center;verticalAlign=middle;whiteSpace=wrap;rounded=0;" parent="1" vertex="1">
                    <mxGeometry x="267" y="1380" width="73" height="30" as="geometry"/>
                </mxCell>
                <mxCell id="wFoNoF2azF-VqJE6fyD9-11" style="edgeStyle=none;html=1;exitX=0.25;exitY=1;exitDx=0;exitDy=0;entryX=0.25;entryY=0;entryDx=0;entryDy=0;" parent="1" source="wFoNoF2azF-VqJE6fyD9-12" target="wFoNoF2azF-VqJE6fyD9-15" edge="1">
                    <mxGeometry relative="1" as="geometry"/>
                </mxCell>
                <mxCell id="wFoNoF2azF-VqJE6fyD9-12" value="Modbus App&lt;div&gt;（寄存器读写)&lt;/div&gt;" style="rounded=0;whiteSpace=wrap;html=1;" parent="1" vertex="1">
                    <mxGeometry x="490" y="1410" width="120" height="60" as="geometry"/>
                </mxCell>
                <mxCell id="wFoNoF2azF-VqJE6fyD9-13" style="edgeStyle=none;html=1;exitX=0.75;exitY=0;exitDx=0;exitDy=0;entryX=0.75;entryY=1;entryDx=0;entryDy=0;" parent="1" source="wFoNoF2azF-VqJE6fyD9-15" target="wFoNoF2azF-VqJE6fyD9-12" edge="1">
                    <mxGeometry relative="1" as="geometry"/>
                </mxCell>
                <mxCell id="wFoNoF2azF-VqJE6fyD9-14" style="edgeStyle=none;html=1;exitX=0.25;exitY=1;exitDx=0;exitDy=0;entryX=0.25;entryY=0;entryDx=0;entryDy=0;" parent="1" source="wFoNoF2azF-VqJE6fyD9-15" target="wFoNoF2azF-VqJE6fyD9-18" edge="1">
                    <mxGeometry relative="1" as="geometry"/>
                </mxCell>
                <mxCell id="wFoNoF2azF-VqJE6fyD9-15" value="Modbus协议层" style="rounded=0;whiteSpace=wrap;html=1;" parent="1" vertex="1">
                    <mxGeometry x="490" y="1530" width="120" height="60" as="geometry"/>
                </mxCell>
                <mxCell id="wFoNoF2azF-VqJE6fyD9-16" style="edgeStyle=none;html=1;exitX=0.75;exitY=0;exitDx=0;exitDy=0;entryX=0.75;entryY=1;entryDx=0;entryDy=0;" parent="1" source="wFoNoF2azF-VqJE6fyD9-18" target="wFoNoF2azF-VqJE6fyD9-15" edge="1">
                    <mxGeometry relative="1" as="geometry"/>
                </mxCell>
                <mxCell id="wFoNoF2azF-VqJE6fyD9-17" style="edgeStyle=none;html=1;exitX=0;exitY=0.25;exitDx=0;exitDy=0;entryX=1;entryY=0.25;entryDx=0;entryDy=0;" parent="1" source="wFoNoF2azF-VqJE6fyD9-18" target="wFoNoF2azF-VqJE6fyD9-9" edge="1">
                    <mxGeometry relative="1" as="geometry"/>
                </mxCell>
                <mxCell id="wFoNoF2azF-VqJE6fyD9-18" value="&lt;span style=&quot;color: rgb(0, 0, 0);&quot;&gt;Modbus物理层&lt;/span&gt;&lt;div&gt;(Port Interface tcp/serial)&lt;/div&gt;" style="rounded=0;whiteSpace=wrap;html=1;" parent="1" vertex="1">
                    <mxGeometry x="490" y="1648" width="120" height="60" as="geometry"/>
                </mxCell>
                <mxCell id="wFoNoF2azF-VqJE6fyD9-19" value="Slave" style="text;html=1;align=center;verticalAlign=middle;whiteSpace=wrap;rounded=0;" parent="1" vertex="1">
                    <mxGeometry x="517" y="1380" width="73" height="30" as="geometry"/>
                </mxCell>
                <mxCell id="wFoNoF2azF-VqJE6fyD9-20" value="请求" style="text;html=1;align=center;verticalAlign=middle;whiteSpace=wrap;rounded=0;" parent="1" vertex="1">
                    <mxGeometry x="400" y="1699" width="60" height="30" as="geometry"/>
                </mxCell>
                <mxCell id="wFoNoF2azF-VqJE6fyD9-21" value="响应" style="text;html=1;align=center;verticalAlign=middle;whiteSpace=wrap;rounded=0;" parent="1" vertex="1">
                    <mxGeometry x="400" y="1630" width="60" height="30" as="geometry"/>
                </mxCell>
                <mxCell id="wFoNoF2azF-VqJE6fyD9-22" value="" style="endArrow=classic;startArrow=classic;html=1;exitX=1;exitY=0.5;exitDx=0;exitDy=0;entryX=0;entryY=0.5;entryDx=0;entryDy=0;dashed=1;" parent="1" source="wFoNoF2azF-VqJE6fyD9-3" target="wFoNoF2azF-VqJE6fyD9-12" edge="1">
                    <mxGeometry width="50" height="50" relative="1" as="geometry">
                        <mxPoint x="380" y="1490" as="sourcePoint"/>
                        <mxPoint x="430" y="1440" as="targetPoint"/>
                    </mxGeometry>
                </mxCell>
                <mxCell id="wFoNoF2azF-VqJE6fyD9-23" value="" style="endArrow=classic;startArrow=classic;html=1;exitX=1;exitY=0.5;exitDx=0;exitDy=0;entryX=0;entryY=0.5;entryDx=0;entryDy=0;dashed=1;" parent="1" source="wFoNoF2azF-VqJE6fyD9-6" target="wFoNoF2azF-VqJE6fyD9-15" edge="1">
                    <mxGeometry width="50" height="50" relative="1" as="geometry">
                        <mxPoint x="380" y="1550" as="sourcePoint"/>
                        <mxPoint x="430" y="1500" as="targetPoint"/>
                    </mxGeometry>
                </mxCell>
                <mxCell id="wFoNoF2azF-VqJE6fyD9-24" value="Modbus Protocol" style="text;html=1;align=center;verticalAlign=middle;whiteSpace=wrap;rounded=0;" parent="1" vertex="1">
                    <mxGeometry x="224" y="1350" width="96" height="30" as="geometry"/>
                </mxCell>
            </root>
        </mxGraphModel>
    </diagram>
    <diagram id="KFOr8yWnvON_YhqA-iaw" name="cmake">
        <mxGraphModel dx="835" dy="-1778" grid="1" gridSize="10" guides="1" tooltips="1" connect="1" arrows="1" fold="1" page="1" pageScale="1" pageWidth="850" pageHeight="1100" math="0" shadow="0">
            <root>
                <mxCell id="0"/>
                <mxCell id="1" parent="0"/>
                <mxCell id="aP1XNpO3V9rBP5sUO6so-1" value="" style="rounded=0;whiteSpace=wrap;html=1;" parent="1" vertex="1">
                    <mxGeometry x="160" y="2300" width="506" height="270" as="geometry"/>
                </mxCell>
                <mxCell id="aP1XNpO3V9rBP5sUO6so-2" style="edgeStyle=none;html=1;exitX=1;exitY=0.25;exitDx=0;exitDy=0;" parent="1" source="aP1XNpO3V9rBP5sUO6so-3" target="aP1XNpO3V9rBP5sUO6so-5" edge="1">
                    <mxGeometry relative="1" as="geometry"/>
                </mxCell>
                <mxCell id="aP1XNpO3V9rBP5sUO6so-3" value="项目工程" style="rounded=0;whiteSpace=wrap;html=1;" parent="1" vertex="1">
                    <mxGeometry x="186" y="2350" width="80" height="200" as="geometry"/>
                </mxCell>
                <mxCell id="aP1XNpO3V9rBP5sUO6so-4" style="edgeStyle=none;html=1;exitX=0.5;exitY=1;exitDx=0;exitDy=0;entryX=0.5;entryY=0;entryDx=0;entryDy=0;" parent="1" source="aP1XNpO3V9rBP5sUO6so-5" target="aP1XNpO3V9rBP5sUO6so-7" edge="1">
                    <mxGeometry relative="1" as="geometry"/>
                </mxCell>
                <mxCell id="aP1XNpO3V9rBP5sUO6so-5" value="cmake" style="rounded=0;whiteSpace=wrap;html=1;" parent="1" vertex="1">
                    <mxGeometry x="376" y="2380" width="80" height="40" as="geometry"/>
                </mxCell>
                <mxCell id="aP1XNpO3V9rBP5sUO6so-6" style="edgeStyle=none;html=1;entryX=0;entryY=0.5;entryDx=0;entryDy=0;" parent="1" source="aP1XNpO3V9rBP5sUO6so-7" target="aP1XNpO3V9rBP5sUO6so-8" edge="1">
                    <mxGeometry relative="1" as="geometry"/>
                </mxCell>
                <mxCell id="aP1XNpO3V9rBP5sUO6so-7" value="Makefile" style="rounded=0;whiteSpace=wrap;html=1;" parent="1" vertex="1">
                    <mxGeometry x="376" y="2480" width="80" height="40" as="geometry"/>
                </mxCell>
                <mxCell id="aP1XNpO3V9rBP5sUO6so-8" value="目标文件" style="rounded=0;whiteSpace=wrap;html=1;" parent="1" vertex="1">
                    <mxGeometry x="566" y="2480" width="80" height="40" as="geometry"/>
                </mxCell>
                <mxCell id="aP1XNpO3V9rBP5sUO6so-9" style="edgeStyle=none;html=1;exitX=1;exitY=0.75;exitDx=0;exitDy=0;entryX=0;entryY=0.5;entryDx=0;entryDy=0;" parent="1" source="aP1XNpO3V9rBP5sUO6so-3" target="aP1XNpO3V9rBP5sUO6so-7" edge="1">
                    <mxGeometry relative="1" as="geometry"/>
                </mxCell>
                <mxCell id="aP1XNpO3V9rBP5sUO6so-10" value="CMakeLists.txt" style="text;html=1;align=center;verticalAlign=middle;whiteSpace=wrap;rounded=0;" parent="1" vertex="1">
                    <mxGeometry x="266" y="2370" width="100" height="30" as="geometry"/>
                </mxCell>
                <mxCell id="aP1XNpO3V9rBP5sUO6so-11" value="make" style="text;html=1;align=center;verticalAlign=middle;whiteSpace=wrap;rounded=0;" parent="1" vertex="1">
                    <mxGeometry x="462" y="2470" width="100" height="30" as="geometry"/>
                </mxCell>
                <mxCell id="aP1XNpO3V9rBP5sUO6so-12" value="cmake执行流程" style="text;html=1;align=center;verticalAlign=middle;whiteSpace=wrap;rounded=0;" parent="1" vertex="1">
                    <mxGeometry x="176" y="2310" width="120" height="30" as="geometry"/>
                </mxCell>
            </root>
        </mxGraphModel>
    </diagram>
    <diagram id="KINSO4PWbyV_uBs-Aze6" name="mqtt">
        <mxGraphModel dx="1050" dy="-1403" grid="1" gridSize="10" guides="1" tooltips="1" connect="1" arrows="1" fold="1" page="1" pageScale="1" pageWidth="850" pageHeight="1100" math="0" shadow="0">
            <root>
                <mxCell id="0"/>
                <mxCell id="1" parent="0"/>
                <mxCell id="yj7PwbewL_6WQBG8S4sZ-1" value="" style="rounded=0;whiteSpace=wrap;html=1;" parent="1" vertex="1">
                    <mxGeometry x="160" y="2360" width="520" height="210" as="geometry"/>
                </mxCell>
                <mxCell id="yj7PwbewL_6WQBG8S4sZ-2" value="Mosquitto Server&lt;div&gt;(MQTT Broker)&lt;/div&gt;" style="rounded=0;whiteSpace=wrap;html=1;" parent="1" vertex="1">
                    <mxGeometry x="360" y="2420" width="120" height="80" as="geometry"/>
                </mxCell>
                <mxCell id="yj7PwbewL_6WQBG8S4sZ-3" value="temperature sensor" style="rounded=0;whiteSpace=wrap;html=1;" parent="1" vertex="1">
                    <mxGeometry x="180" y="2440" width="80" height="40" as="geometry"/>
                </mxCell>
                <mxCell id="yj7PwbewL_6WQBG8S4sZ-4" value="" style="endArrow=classic;html=1;exitX=1;exitY=0.5;exitDx=0;exitDy=0;entryX=0;entryY=0.5;entryDx=0;entryDy=0;" parent="1" source="yj7PwbewL_6WQBG8S4sZ-3" target="yj7PwbewL_6WQBG8S4sZ-2" edge="1">
                    <mxGeometry width="50" height="50" relative="1" as="geometry">
                        <mxPoint x="390" y="2580" as="sourcePoint"/>
                        <mxPoint x="440" y="2530" as="targetPoint"/>
                    </mxGeometry>
                </mxCell>
                <mxCell id="yj7PwbewL_6WQBG8S4sZ-5" value="publish&amp;nbsp;&lt;div&gt;/temp 27°&lt;/div&gt;" style="text;html=1;align=center;verticalAlign=middle;whiteSpace=wrap;rounded=0;" parent="1" vertex="1">
                    <mxGeometry x="270" y="2420" width="80" height="30" as="geometry"/>
                </mxCell>
                <mxCell id="yj7PwbewL_6WQBG8S4sZ-6" value="iphone" style="rounded=0;whiteSpace=wrap;html=1;" parent="1" vertex="1">
                    <mxGeometry x="600" y="2380" width="70" height="40" as="geometry"/>
                </mxCell>
                <mxCell id="yj7PwbewL_6WQBG8S4sZ-7" style="edgeStyle=none;html=1;entryX=1;entryY=0.75;entryDx=0;entryDy=0;exitX=0;exitY=0.5;exitDx=0;exitDy=0;" parent="1" source="yj7PwbewL_6WQBG8S4sZ-8" target="yj7PwbewL_6WQBG8S4sZ-2" edge="1">
                    <mxGeometry relative="1" as="geometry"/>
                </mxCell>
                <mxCell id="yj7PwbewL_6WQBG8S4sZ-8" value="PC" style="rounded=0;whiteSpace=wrap;html=1;" parent="1" vertex="1">
                    <mxGeometry x="600" y="2500" width="70" height="40" as="geometry"/>
                </mxCell>
                <mxCell id="yj7PwbewL_6WQBG8S4sZ-9" value="" style="endArrow=classic;html=1;exitX=-0.003;exitY=0.308;exitDx=0;exitDy=0;entryX=1;entryY=0.25;entryDx=0;entryDy=0;exitPerimeter=0;" parent="1" source="yj7PwbewL_6WQBG8S4sZ-6" target="yj7PwbewL_6WQBG8S4sZ-2" edge="1">
                    <mxGeometry width="50" height="50" relative="1" as="geometry">
                        <mxPoint x="490" y="2380" as="sourcePoint"/>
                        <mxPoint x="540" y="2330" as="targetPoint"/>
                    </mxGeometry>
                </mxCell>
                <mxCell id="yj7PwbewL_6WQBG8S4sZ-10" value="subscribe&lt;div&gt;/temp&lt;/div&gt;" style="text;html=1;align=center;verticalAlign=middle;whiteSpace=wrap;rounded=0;" parent="1" vertex="1">
                    <mxGeometry x="490" y="2390" width="60" height="30" as="geometry"/>
                </mxCell>
                <mxCell id="yj7PwbewL_6WQBG8S4sZ-11" value="subscribe&lt;div&gt;/temp&lt;/div&gt;" style="text;html=1;align=center;verticalAlign=middle;whiteSpace=wrap;rounded=0;" parent="1" vertex="1">
                    <mxGeometry x="520" y="2470" width="60" height="30" as="geometry"/>
                </mxCell>
                <mxCell id="yj7PwbewL_6WQBG8S4sZ-12" value="" style="endArrow=classic;html=1;exitX=1;exitY=0.871;exitDx=0;exitDy=0;exitPerimeter=0;entryX=0;entryY=0.75;entryDx=0;entryDy=0;dashed=1;" parent="1" source="yj7PwbewL_6WQBG8S4sZ-2" target="yj7PwbewL_6WQBG8S4sZ-8" edge="1">
                    <mxGeometry width="50" height="50" relative="1" as="geometry">
                        <mxPoint x="490" y="2560" as="sourcePoint"/>
                        <mxPoint x="540" y="2510" as="targetPoint"/>
                    </mxGeometry>
                </mxCell>
                <mxCell id="yj7PwbewL_6WQBG8S4sZ-13" value="publish" style="text;html=1;align=center;verticalAlign=middle;whiteSpace=wrap;rounded=0;" parent="1" vertex="1">
                    <mxGeometry x="500" y="2515" width="60" height="10" as="geometry"/>
                </mxCell>
                <mxCell id="yj7PwbewL_6WQBG8S4sZ-14" value="" style="endArrow=classic;html=1;exitX=0.997;exitY=0.358;exitDx=0;exitDy=0;exitPerimeter=0;entryX=0;entryY=0.5;entryDx=0;entryDy=0;dashed=1;" parent="1" source="yj7PwbewL_6WQBG8S4sZ-2" target="yj7PwbewL_6WQBG8S4sZ-6" edge="1">
                    <mxGeometry width="50" height="50" relative="1" as="geometry">
                        <mxPoint x="530" y="2420" as="sourcePoint"/>
                        <mxPoint x="580" y="2370" as="targetPoint"/>
                    </mxGeometry>
                </mxCell>
                <mxCell id="yj7PwbewL_6WQBG8S4sZ-15" value="publish" style="text;html=1;align=center;verticalAlign=middle;whiteSpace=wrap;rounded=0;" parent="1" vertex="1">
                    <mxGeometry x="500" y="2440" width="60" height="10" as="geometry"/>
                </mxCell>
            </root>
        </mxGraphModel>
    </diagram>
    <diagram id="qoWC_MqNWJSS20_I8zd3" name="fb">
        <mxGraphModel dx="737" dy="588" grid="0" gridSize="10" guides="0" tooltips="1" connect="1" arrows="1" fold="1" page="1" pageScale="1" pageWidth="850" pageHeight="1100" math="0" shadow="0">
            <root>
                <mxCell id="0"/>
                <mxCell id="1" parent="0"/>
                <mxCell id="mXA0PzkFt1lHtrd2kr56-15" value="" style="rounded=0;whiteSpace=wrap;html=1;" parent="1" vertex="1">
                    <mxGeometry x="80" y="1240" width="430" height="580" as="geometry"/>
                </mxCell>
                <mxCell id="xRspeK94EjHFNtSj0swi-26" value="" style="rounded=0;whiteSpace=wrap;html=1;" parent="1" vertex="1">
                    <mxGeometry x="220" y="80" width="470" height="365" as="geometry"/>
                </mxCell>
                <mxCell id="2tz-jrLRBPpdeFKXUSCq-1" value="" style="rounded=0;whiteSpace=wrap;html=1;" parent="1" vertex="1">
                    <mxGeometry x="470" y="355" width="80" height="80" as="geometry"/>
                </mxCell>
                <mxCell id="2tz-jrLRBPpdeFKXUSCq-2" value="" style="rounded=0;whiteSpace=wrap;html=1;" parent="1" vertex="1">
                    <mxGeometry x="470" y="355" width="10" height="10" as="geometry"/>
                </mxCell>
                <mxCell id="2tz-jrLRBPpdeFKXUSCq-3" value="" style="rounded=0;whiteSpace=wrap;html=1;" parent="1" vertex="1">
                    <mxGeometry x="480" y="355" width="10" height="10" as="geometry"/>
                </mxCell>
                <mxCell id="2tz-jrLRBPpdeFKXUSCq-5" value="......" style="text;html=1;align=center;verticalAlign=bottom;whiteSpace=wrap;rounded=0;" parent="1" vertex="1">
                    <mxGeometry x="480" y="355" width="60" height="10" as="geometry"/>
                </mxCell>
                <mxCell id="2tz-jrLRBPpdeFKXUSCq-6" value="" style="rounded=0;whiteSpace=wrap;html=1;" parent="1" vertex="1">
                    <mxGeometry x="470" y="365" width="10" height="10" as="geometry"/>
                </mxCell>
                <mxCell id="2tz-jrLRBPpdeFKXUSCq-7" value="......" style="text;html=1;align=center;verticalAlign=bottom;whiteSpace=wrap;rounded=0;horizontal=0;" parent="1" vertex="1">
                    <mxGeometry x="470" y="380" width="10" height="30" as="geometry"/>
                </mxCell>
                <mxCell id="2tz-jrLRBPpdeFKXUSCq-15" value="R" style="rounded=0;whiteSpace=wrap;html=1;fontSize=10;" parent="1" vertex="1">
                    <mxGeometry x="440" y="345" width="10" height="10" as="geometry"/>
                </mxCell>
                <mxCell id="2tz-jrLRBPpdeFKXUSCq-16" value="G" style="rounded=0;whiteSpace=wrap;html=1;fontSize=10;" parent="1" vertex="1">
                    <mxGeometry x="440" y="355" width="10" height="10" as="geometry"/>
                </mxCell>
                <mxCell id="2tz-jrLRBPpdeFKXUSCq-17" value="B" style="rounded=0;whiteSpace=wrap;html=1;fontSize=10;" parent="1" vertex="1">
                    <mxGeometry x="440" y="365" width="10" height="10" as="geometry"/>
                </mxCell>
                <mxCell id="2tz-jrLRBPpdeFKXUSCq-18" value="屏幕显示" style="text;html=1;align=center;verticalAlign=middle;whiteSpace=wrap;rounded=0;" parent="1" vertex="1">
                    <mxGeometry x="480" y="380" width="60" height="30" as="geometry"/>
                </mxCell>
                <mxCell id="2tz-jrLRBPpdeFKXUSCq-20" value="每个像素点数据" style="text;html=1;align=center;verticalAlign=middle;whiteSpace=wrap;rounded=0;fontSize=6;" parent="1" vertex="1">
                    <mxGeometry x="370" y="355" width="45" height="10" as="geometry"/>
                </mxCell>
                <mxCell id="2tz-jrLRBPpdeFKXUSCq-21" value="屏幕对应显存空间" style="rounded=0;whiteSpace=wrap;html=1;verticalAlign=middle;" parent="1" vertex="1">
                    <mxGeometry x="352.5" y="200" width="80" height="80" as="geometry"/>
                </mxCell>
                <mxCell id="xRspeK94EjHFNtSj0swi-11" style="edgeStyle=none;html=1;exitX=0.5;exitY=1;exitDx=0;exitDy=0;entryX=0.5;entryY=0;entryDx=0;entryDy=0;" parent="1" source="xRspeK94EjHFNtSj0swi-2" target="2tz-jrLRBPpdeFKXUSCq-5" edge="1">
                    <mxGeometry relative="1" as="geometry"/>
                </mxCell>
                <mxCell id="xRspeK94EjHFNtSj0swi-2" value="fb驱动" style="rounded=0;whiteSpace=wrap;html=1;" parent="1" vertex="1">
                    <mxGeometry x="460" y="225" width="100" height="30" as="geometry"/>
                </mxCell>
                <mxCell id="xRspeK94EjHFNtSj0swi-7" value="" style="endArrow=classic;html=1;entryX=1;entryY=0;entryDx=0;entryDy=0;exitX=0;exitY=0;exitDx=0;exitDy=0;endFill=1;dashed=1;" parent="1" source="2tz-jrLRBPpdeFKXUSCq-2" target="2tz-jrLRBPpdeFKXUSCq-15" edge="1">
                    <mxGeometry width="50" height="50" relative="1" as="geometry">
                        <mxPoint x="450" y="415" as="sourcePoint"/>
                        <mxPoint x="500" y="365" as="targetPoint"/>
                    </mxGeometry>
                </mxCell>
                <mxCell id="xRspeK94EjHFNtSj0swi-8" value="" style="endArrow=classic;html=1;exitX=0;exitY=0;exitDx=0;exitDy=0;entryX=1;entryY=1;entryDx=0;entryDy=0;dashed=1;" parent="1" source="2tz-jrLRBPpdeFKXUSCq-6" target="2tz-jrLRBPpdeFKXUSCq-17" edge="1">
                    <mxGeometry width="50" height="50" relative="1" as="geometry">
                        <mxPoint x="440" y="405" as="sourcePoint"/>
                        <mxPoint x="490" y="355" as="targetPoint"/>
                    </mxGeometry>
                </mxCell>
                <mxCell id="xRspeK94EjHFNtSj0swi-12" value="" style="endArrow=none;html=1;dashed=1;" parent="1" edge="1">
                    <mxGeometry width="50" height="50" relative="1" as="geometry">
                        <mxPoint x="230" y="335" as="sourcePoint"/>
                        <mxPoint x="660" y="335" as="targetPoint"/>
                    </mxGeometry>
                </mxCell>
                <mxCell id="xRspeK94EjHFNtSj0swi-13" value="" style="endArrow=none;html=1;dashed=1;" parent="1" edge="1">
                    <mxGeometry width="50" height="50" relative="1" as="geometry">
                        <mxPoint x="230" y="155" as="sourcePoint"/>
                        <mxPoint x="660" y="155" as="targetPoint"/>
                    </mxGeometry>
                </mxCell>
                <mxCell id="xRspeK94EjHFNtSj0swi-14" value="" style="endArrow=classic;html=1;exitX=0;exitY=0.5;exitDx=0;exitDy=0;entryX=1;entryY=0.5;entryDx=0;entryDy=0;" parent="1" source="xRspeK94EjHFNtSj0swi-2" target="2tz-jrLRBPpdeFKXUSCq-21" edge="1">
                    <mxGeometry width="50" height="50" relative="1" as="geometry">
                        <mxPoint x="480" y="315" as="sourcePoint"/>
                        <mxPoint x="530" y="265" as="targetPoint"/>
                    </mxGeometry>
                </mxCell>
                <mxCell id="xRspeK94EjHFNtSj0swi-15" value="" style="endArrow=classic;html=1;exitX=0.5;exitY=1;exitDx=0;exitDy=0;entryX=0.5;entryY=0;entryDx=0;entryDy=0;dashed=1;" parent="1" source="2tz-jrLRBPpdeFKXUSCq-21" target="2tz-jrLRBPpdeFKXUSCq-5" edge="1">
                    <mxGeometry width="50" height="50" relative="1" as="geometry">
                        <mxPoint x="480" y="315" as="sourcePoint"/>
                        <mxPoint x="530" y="265" as="targetPoint"/>
                    </mxGeometry>
                </mxCell>
                <mxCell id="xRspeK94EjHFNtSj0swi-16" value="驱动更新显存空间" style="text;html=1;align=center;verticalAlign=middle;whiteSpace=wrap;rounded=0;" parent="1" vertex="1">
                    <mxGeometry x="450" y="280" width="60" height="30" as="geometry"/>
                </mxCell>
                <mxCell id="xRspeK94EjHFNtSj0swi-17" value="显存对应ARGB888格式，带混合" style="text;html=1;align=center;verticalAlign=middle;whiteSpace=wrap;rounded=0;" parent="1" vertex="1">
                    <mxGeometry x="240" y="225" width="110" height="30" as="geometry"/>
                </mxCell>
                <mxCell id="xRspeK94EjHFNtSj0swi-18" value="fb_app" style="rounded=0;whiteSpace=wrap;html=1;" parent="1" vertex="1">
                    <mxGeometry x="460" y="95" width="100" height="30" as="geometry"/>
                </mxCell>
                <mxCell id="xRspeK94EjHFNtSj0swi-19" value="" style="endArrow=classic;html=1;exitX=0.5;exitY=1;exitDx=0;exitDy=0;entryX=0.5;entryY=0;entryDx=0;entryDy=0;" parent="1" source="xRspeK94EjHFNtSj0swi-18" target="xRspeK94EjHFNtSj0swi-2" edge="1">
                    <mxGeometry width="50" height="50" relative="1" as="geometry">
                        <mxPoint x="480" y="315" as="sourcePoint"/>
                        <mxPoint x="530" y="265" as="targetPoint"/>
                    </mxGeometry>
                </mxCell>
                <mxCell id="xRspeK94EjHFNtSj0swi-20" value="" style="endArrow=classic;html=1;exitX=0.5;exitY=1;exitDx=0;exitDy=0;entryX=0.5;entryY=0;entryDx=0;entryDy=0;dashed=1;" parent="1" source="xRspeK94EjHFNtSj0swi-18" target="2tz-jrLRBPpdeFKXUSCq-21" edge="1">
                    <mxGeometry width="50" height="50" relative="1" as="geometry">
                        <mxPoint x="480" y="315" as="sourcePoint"/>
                        <mxPoint x="530" y="265" as="targetPoint"/>
                    </mxGeometry>
                </mxCell>
                <mxCell id="xRspeK94EjHFNtSj0swi-21" value="ioctl文件接口操作驱动处理" style="text;html=1;align=center;verticalAlign=middle;whiteSpace=wrap;rounded=0;" parent="1" vertex="1">
                    <mxGeometry x="510" y="170" width="150" height="30" as="geometry"/>
                </mxCell>
                <mxCell id="xRspeK94EjHFNtSj0swi-22" value="映射操作显存" style="text;html=1;align=center;verticalAlign=middle;whiteSpace=wrap;rounded=0;" parent="1" vertex="1">
                    <mxGeometry x="300" y="155" width="107.5" height="30" as="geometry"/>
                </mxCell>
                <mxCell id="xRspeK94EjHFNtSj0swi-23" value="内核空间" style="text;html=1;align=center;verticalAlign=middle;whiteSpace=wrap;rounded=0;" parent="1" vertex="1">
                    <mxGeometry x="600" y="225" width="60" height="30" as="geometry"/>
                </mxCell>
                <mxCell id="xRspeK94EjHFNtSj0swi-24" value="应用APP" style="text;html=1;align=center;verticalAlign=middle;whiteSpace=wrap;rounded=0;" parent="1" vertex="1">
                    <mxGeometry x="600" y="95" width="60" height="30" as="geometry"/>
                </mxCell>
                <mxCell id="xRspeK94EjHFNtSj0swi-25" value="系统硬件" style="text;html=1;align=center;verticalAlign=middle;whiteSpace=wrap;rounded=0;" parent="1" vertex="1">
                    <mxGeometry x="585" y="365" width="60" height="30" as="geometry"/>
                </mxCell>
                <mxCell id="xRspeK94EjHFNtSj0swi-27" value="UI操作" style="text;html=1;align=center;verticalAlign=middle;whiteSpace=wrap;rounded=0;" parent="1" vertex="1">
                    <mxGeometry x="230" y="80" width="60" height="30" as="geometry"/>
                </mxCell>
                <mxCell id="IvdPRZcHFxvT-jRqou94-1" value="" style="rounded=0;whiteSpace=wrap;html=1;" parent="1" vertex="1">
                    <mxGeometry x="320" y="560" width="170" height="180" as="geometry"/>
                </mxCell>
                <mxCell id="IvdPRZcHFxvT-jRqou94-2" value="下一界面" style="rounded=0;whiteSpace=wrap;html=1;" parent="1" vertex="1">
                    <mxGeometry x="320" y="560" width="170" height="90" as="geometry"/>
                </mxCell>
                <mxCell id="IvdPRZcHFxvT-jRqou94-4" value="原界面" style="rounded=0;whiteSpace=wrap;html=1;" parent="1" vertex="1">
                    <mxGeometry x="320" y="650" width="170" height="90" as="geometry"/>
                </mxCell>
                <mxCell id="IvdPRZcHFxvT-jRqou94-5" value="" style="endArrow=classic;html=1;" parent="1" edge="1">
                    <mxGeometry width="50" height="50" relative="1" as="geometry">
                        <mxPoint x="280" y="585" as="sourcePoint"/>
                        <mxPoint x="280" y="715" as="targetPoint"/>
                    </mxGeometry>
                </mxCell>
                <mxCell id="IvdPRZcHFxvT-jRqou94-6" value="应用APP更新顺序" style="text;html=1;align=center;verticalAlign=middle;whiteSpace=wrap;rounded=0;" parent="1" vertex="1">
                    <mxGeometry x="220" y="645" width="60" height="30" as="geometry"/>
                </mxCell>
                <mxCell id="IvdPRZcHFxvT-jRqou94-8" value="" style="endArrow=classic;html=1;" parent="1" edge="1">
                    <mxGeometry width="50" height="50" relative="1" as="geometry">
                        <mxPoint x="520" y="580" as="sourcePoint"/>
                        <mxPoint x="520" y="710" as="targetPoint"/>
                    </mxGeometry>
                </mxCell>
                <mxCell id="IvdPRZcHFxvT-jRqou94-9" value="fb驱动更新顺序" style="text;html=1;align=center;verticalAlign=middle;whiteSpace=wrap;rounded=0;" parent="1" vertex="1">
                    <mxGeometry x="525" y="635" width="60" height="30" as="geometry"/>
                </mxCell>
                <mxCell id="IvdPRZcHFxvT-jRqou94-10" value="显示缓冲0" style="rounded=0;whiteSpace=wrap;html=1;" parent="1" vertex="1">
                    <mxGeometry x="140" y="1380" width="120" height="160" as="geometry"/>
                </mxCell>
                <mxCell id="mXA0PzkFt1lHtrd2kr56-1" value="显示缓冲1" style="rounded=0;whiteSpace=wrap;html=1;" parent="1" vertex="1">
                    <mxGeometry x="340" y="1380" width="120" height="160" as="geometry"/>
                </mxCell>
                <mxCell id="mXA0PzkFt1lHtrd2kr56-2" value="LCD驱动" style="rounded=0;whiteSpace=wrap;html=1;" parent="1" vertex="1">
                    <mxGeometry x="180" y="1600" width="240" height="60" as="geometry"/>
                </mxCell>
                <mxCell id="mXA0PzkFt1lHtrd2kr56-3" value="LCD硬件界面" style="rounded=0;whiteSpace=wrap;html=1;" parent="1" vertex="1">
                    <mxGeometry x="220" y="1740" width="160" height="60" as="geometry"/>
                </mxCell>
                <mxCell id="mXA0PzkFt1lHtrd2kr56-4" value="" style="endArrow=classic;html=1;exitX=0.5;exitY=1;exitDx=0;exitDy=0;entryX=0.536;entryY=0.007;entryDx=0;entryDy=0;entryPerimeter=0;" parent="1" source="IvdPRZcHFxvT-jRqou94-10" target="mXA0PzkFt1lHtrd2kr56-2" edge="1">
                    <mxGeometry width="50" height="50" relative="1" as="geometry">
                        <mxPoint x="380" y="1600" as="sourcePoint"/>
                        <mxPoint x="430" y="1550" as="targetPoint"/>
                    </mxGeometry>
                </mxCell>
                <mxCell id="mXA0PzkFt1lHtrd2kr56-5" value="" style="endArrow=classic;html=1;exitX=0.5;exitY=1;exitDx=0;exitDy=0;entryX=0.5;entryY=0;entryDx=0;entryDy=0;" parent="1" source="mXA0PzkFt1lHtrd2kr56-2" target="mXA0PzkFt1lHtrd2kr56-3" edge="1">
                    <mxGeometry width="50" height="50" relative="1" as="geometry">
                        <mxPoint x="380" y="1600" as="sourcePoint"/>
                        <mxPoint x="430" y="1550" as="targetPoint"/>
                    </mxGeometry>
                </mxCell>
                <mxCell id="mXA0PzkFt1lHtrd2kr56-13" style="edgeStyle=none;html=1;entryX=0.5;entryY=0;entryDx=0;entryDy=0;" parent="1" target="IvdPRZcHFxvT-jRqou94-10" edge="1">
                    <mxGeometry relative="1" as="geometry">
                        <mxPoint x="300" y="1340" as="sourcePoint"/>
                    </mxGeometry>
                </mxCell>
                <mxCell id="mXA0PzkFt1lHtrd2kr56-6" value="/dev/fbX应用" style="rounded=0;whiteSpace=wrap;html=1;" parent="1" vertex="1">
                    <mxGeometry x="240" y="1280" width="120" height="60" as="geometry"/>
                </mxCell>
                <mxCell id="mXA0PzkFt1lHtrd2kr56-7" value="step1: 缓冲0更新到LCD显示" style="text;html=1;align=center;verticalAlign=middle;whiteSpace=wrap;rounded=0;" parent="1" vertex="1">
                    <mxGeometry x="130" y="1560" width="110" height="30" as="geometry"/>
                </mxCell>
                <mxCell id="mXA0PzkFt1lHtrd2kr56-9" value="" style="endArrow=classic;html=1;exitX=0.5;exitY=1;exitDx=0;exitDy=0;entryX=0.5;entryY=0;entryDx=0;entryDy=0;" parent="1" target="mXA0PzkFt1lHtrd2kr56-1" edge="1">
                    <mxGeometry width="50" height="50" relative="1" as="geometry">
                        <mxPoint x="300.5" y="1340" as="sourcePoint"/>
                        <mxPoint x="407.5" y="1401" as="targetPoint"/>
                    </mxGeometry>
                </mxCell>
                <mxCell id="mXA0PzkFt1lHtrd2kr56-10" value="step2: 应用APP更新到缓冲1" style="text;html=1;align=center;verticalAlign=middle;whiteSpace=wrap;rounded=0;" parent="1" vertex="1">
                    <mxGeometry x="370" y="1330" width="110" height="30" as="geometry"/>
                </mxCell>
                <mxCell id="mXA0PzkFt1lHtrd2kr56-11" value="" style="endArrow=classic;html=1;exitX=0.5;exitY=1;exitDx=0;exitDy=0;" parent="1" source="mXA0PzkFt1lHtrd2kr56-1" edge="1">
                    <mxGeometry width="50" height="50" relative="1" as="geometry">
                        <mxPoint x="400" y="1510" as="sourcePoint"/>
                        <mxPoint x="300" y="1600" as="targetPoint"/>
                    </mxGeometry>
                </mxCell>
                <mxCell id="mXA0PzkFt1lHtrd2kr56-12" value="step3: 切换到缓冲1更新到LCD显示" style="text;html=1;align=center;verticalAlign=middle;whiteSpace=wrap;rounded=0;" parent="1" vertex="1">
                    <mxGeometry x="370" y="1560" width="110" height="30" as="geometry"/>
                </mxCell>
                <mxCell id="mXA0PzkFt1lHtrd2kr56-14" value="step4: 下一个循环，应用APP更新到缓冲0" style="text;html=1;align=center;verticalAlign=middle;whiteSpace=wrap;rounded=0;" parent="1" vertex="1">
                    <mxGeometry x="90" y="1340" width="130" height="30" as="geometry"/>
                </mxCell>
                <mxCell id="mXA0PzkFt1lHtrd2kr56-16" value="双缓冲机制UI处理" style="text;html=1;align=center;verticalAlign=middle;whiteSpace=wrap;rounded=0;" parent="1" vertex="1">
                    <mxGeometry x="80" y="1240" width="110" height="30" as="geometry"/>
                </mxCell>
                <mxCell id="EZj_bH4vi2FaePwc7_gh-1" value="" style="rounded=0;whiteSpace=wrap;html=1;" parent="1" vertex="1">
                    <mxGeometry x="400" y="840" width="160" height="120" as="geometry"/>
                </mxCell>
                <mxCell id="EZj_bH4vi2FaePwc7_gh-2" value="" style="rounded=0;whiteSpace=wrap;html=1;" parent="1" vertex="1">
                    <mxGeometry x="420" y="860" width="120" height="80" as="geometry"/>
                </mxCell>
                <mxCell id="EZj_bH4vi2FaePwc7_gh-6" value="" style="endArrow=classic;html=1;" parent="1" edge="1">
                    <mxGeometry width="50" height="50" relative="1" as="geometry">
                        <mxPoint x="400" y="820" as="sourcePoint"/>
                        <mxPoint x="560" y="820" as="targetPoint"/>
                    </mxGeometry>
                </mxCell>
                <mxCell id="EZj_bH4vi2FaePwc7_gh-7" value="width_" style="text;html=1;align=center;verticalAlign=middle;whiteSpace=wrap;rounded=0;" parent="1" vertex="1">
                    <mxGeometry x="450" y="790" width="60" height="30" as="geometry"/>
                </mxCell>
                <mxCell id="EZj_bH4vi2FaePwc7_gh-8" value="" style="endArrow=classic;html=1;" parent="1" edge="1">
                    <mxGeometry width="50" height="50" relative="1" as="geometry">
                        <mxPoint x="590" y="840" as="sourcePoint"/>
                        <mxPoint x="590" y="950" as="targetPoint"/>
                    </mxGeometry>
                </mxCell>
                <mxCell id="EZj_bH4vi2FaePwc7_gh-9" value="height_" style="text;html=1;align=center;verticalAlign=middle;whiteSpace=wrap;rounded=0;" parent="1" vertex="1">
                    <mxGeometry x="590" y="880" width="60" height="30" as="geometry"/>
                </mxCell>
                <mxCell id="EZj_bH4vi2FaePwc7_gh-11" style="edgeStyle=none;html=1;entryX=0;entryY=0;entryDx=0;entryDy=0;" parent="1" source="EZj_bH4vi2FaePwc7_gh-10" target="EZj_bH4vi2FaePwc7_gh-2" edge="1">
                    <mxGeometry relative="1" as="geometry"/>
                </mxCell>
                <mxCell id="EZj_bH4vi2FaePwc7_gh-10" value="（start_x, start_y)" style="text;html=1;align=center;verticalAlign=middle;whiteSpace=wrap;rounded=0;" parent="1" vertex="1">
                    <mxGeometry x="300" y="810" width="100" height="20" as="geometry"/>
                </mxCell>
                <mxCell id="EZj_bH4vi2FaePwc7_gh-13" style="edgeStyle=none;html=1;entryX=1;entryY=1;entryDx=0;entryDy=0;" parent="1" source="EZj_bH4vi2FaePwc7_gh-12" target="EZj_bH4vi2FaePwc7_gh-2" edge="1">
                    <mxGeometry relative="1" as="geometry"/>
                </mxCell>
                <mxCell id="EZj_bH4vi2FaePwc7_gh-12" value="（end_x, end_y)" style="text;html=1;align=center;verticalAlign=middle;whiteSpace=wrap;rounded=0;" parent="1" vertex="1">
                    <mxGeometry x="525" y="980" width="100" height="20" as="geometry"/>
                </mxCell>
                <mxCell id="wUThb6jmQou64bDho0We-1" value="" style="rounded=0;whiteSpace=wrap;html=1;" vertex="1" parent="1">
                    <mxGeometry x="364" y="1382" width="120" height="60" as="geometry"/>
                </mxCell>
                <mxCell id="wUThb6jmQou64bDho0We-2" value="" style="rounded=0;whiteSpace=wrap;html=1;" vertex="1" parent="1">
                    <mxGeometry x="585" y="1141" width="120" height="60" as="geometry"/>
                </mxCell>
                <mxCell id="wUThb6jmQou64bDho0We-4" style="edgeStyle=none;html=1;entryX=0;entryY=0;entryDx=0;entryDy=0;" edge="1" parent="1" source="wUThb6jmQou64bDho0We-3" target="wUThb6jmQou64bDho0We-2">
                    <mxGeometry relative="1" as="geometry"/>
                </mxCell>
                <mxCell id="wUThb6jmQou64bDho0We-3" value="（start_x, start_y)" style="text;html=1;align=center;verticalAlign=middle;whiteSpace=wrap;rounded=0;" vertex="1" parent="1">
                    <mxGeometry x="443" y="1108" width="109" height="30" as="geometry"/>
                </mxCell>
                <mxCell id="wUThb6jmQou64bDho0We-7" style="edgeStyle=none;html=1;entryX=1;entryY=0;entryDx=0;entryDy=0;" edge="1" parent="1" source="wUThb6jmQou64bDho0We-6" target="wUThb6jmQou64bDho0We-2">
                    <mxGeometry relative="1" as="geometry"/>
                </mxCell>
                <mxCell id="wUThb6jmQou64bDho0We-6" value="（end_x, start_y)" style="text;html=1;align=center;verticalAlign=middle;whiteSpace=wrap;rounded=0;" vertex="1" parent="1">
                    <mxGeometry x="709" y="1101" width="109" height="30" as="geometry"/>
                </mxCell>
                <mxCell id="wUThb6jmQou64bDho0We-8" value="（start_x, end_y)" style="text;html=1;align=center;verticalAlign=middle;whiteSpace=wrap;rounded=0;" vertex="1" parent="1">
                    <mxGeometry x="442" y="1196" width="109" height="30" as="geometry"/>
                </mxCell>
                <mxCell id="wUThb6jmQou64bDho0We-9" style="edgeStyle=none;html=1;entryX=0.046;entryY=0.989;entryDx=0;entryDy=0;entryPerimeter=0;" edge="1" parent="1" source="wUThb6jmQou64bDho0We-8" target="wUThb6jmQou64bDho0We-2">
                    <mxGeometry relative="1" as="geometry"/>
                </mxCell>
            </root>
        </mxGraphModel>
    </diagram>
    <diagram id="z5-3WtcJ39gGfk_dhUpf" name="lvgl">
        <mxGraphModel dx="800" dy="664" grid="1" gridSize="10" guides="1" tooltips="1" connect="1" arrows="1" fold="1" page="1" pageScale="1" pageWidth="850" pageHeight="1100" math="0" shadow="0">
            <root>
                <mxCell id="0"/>
                <mxCell id="1" parent="0"/>
                <mxCell id="K6FDyAL2HQpZlwJv3CU7-16" value="" style="rounded=0;whiteSpace=wrap;html=1;dashed=1;" parent="1" vertex="1">
                    <mxGeometry x="70" y="110" width="400" height="360" as="geometry"/>
                </mxCell>
                <mxCell id="K6FDyAL2HQpZlwJv3CU7-12" style="edgeStyle=none;html=1;entryX=0.5;entryY=0;entryDx=0;entryDy=0;" parent="1" source="K6FDyAL2HQpZlwJv3CU7-1" target="K6FDyAL2HQpZlwJv3CU7-11" edge="1">
                    <mxGeometry relative="1" as="geometry"/>
                </mxCell>
                <mxCell id="K6FDyAL2HQpZlwJv3CU7-13" value="3.图像显示页&lt;div&gt;同时切换到缓存页&lt;/div&gt;" style="edgeLabel;html=1;align=left;verticalAlign=middle;resizable=0;points=[];" parent="K6FDyAL2HQpZlwJv3CU7-12" vertex="1" connectable="0">
                    <mxGeometry x="-0.3" y="2" relative="1" as="geometry">
                        <mxPoint x="-102" y="9" as="offset"/>
                    </mxGeometry>
                </mxCell>
                <mxCell id="K6FDyAL2HQpZlwJv3CU7-1" value="image_mmap" style="rounded=0;whiteSpace=wrap;html=1;" parent="1" vertex="1">
                    <mxGeometry x="335" y="150" width="110" height="70" as="geometry"/>
                </mxCell>
                <mxCell id="K6FDyAL2HQpZlwJv3CU7-9" style="edgeStyle=none;html=1;entryX=0.5;entryY=0;entryDx=0;entryDy=0;" parent="1" source="K6FDyAL2HQpZlwJv3CU7-2" target="K6FDyAL2HQpZlwJv3CU7-8" edge="1">
                    <mxGeometry relative="1" as="geometry"/>
                </mxCell>
                <mxCell id="K6FDyAL2HQpZlwJv3CU7-10" value="2.将缓存页切换到&lt;div&gt;图像显示页&lt;/div&gt;" style="edgeLabel;html=1;align=left;verticalAlign=middle;resizable=0;points=[];" parent="K6FDyAL2HQpZlwJv3CU7-9" vertex="1" connectable="0">
                    <mxGeometry x="-0.3" y="2" relative="1" as="geometry">
                        <mxPoint x="8" y="9" as="offset"/>
                    </mxGeometry>
                </mxCell>
                <mxCell id="K6FDyAL2HQpZlwJv3CU7-2" value="cache_mmap" style="rounded=0;whiteSpace=wrap;html=1;" parent="1" vertex="1">
                    <mxGeometry x="85" y="150" width="110" height="70" as="geometry"/>
                </mxCell>
                <mxCell id="K6FDyAL2HQpZlwJv3CU7-4" style="edgeStyle=none;html=1;entryX=0.5;entryY=0;entryDx=0;entryDy=0;exitX=0.5;exitY=1;exitDx=0;exitDy=0;" parent="1" source="K6FDyAL2HQpZlwJv3CU7-3" target="K6FDyAL2HQpZlwJv3CU7-2" edge="1">
                    <mxGeometry relative="1" as="geometry"/>
                </mxCell>
                <mxCell id="K6FDyAL2HQpZlwJv3CU7-5" value="1. 写入缓存页" style="edgeLabel;html=1;align=center;verticalAlign=middle;resizable=0;points=[];" parent="K6FDyAL2HQpZlwJv3CU7-4" vertex="1" connectable="0">
                    <mxGeometry x="-0.1" relative="1" as="geometry">
                        <mxPoint x="24" y="13" as="offset"/>
                    </mxGeometry>
                </mxCell>
                <mxCell id="K6FDyAL2HQpZlwJv3CU7-3" value="page_change_buffer" style="rounded=0;whiteSpace=wrap;html=1;" parent="1" vertex="1">
                    <mxGeometry x="195" y="30" width="130" height="60" as="geometry"/>
                </mxCell>
                <mxCell id="K6FDyAL2HQpZlwJv3CU7-8" value="&lt;span style=&quot;color: rgb(0, 0, 0);&quot;&gt;image_mmap&lt;/span&gt;" style="rounded=0;whiteSpace=wrap;html=1;" parent="1" vertex="1">
                    <mxGeometry x="85" y="280" width="110" height="70" as="geometry"/>
                </mxCell>
                <mxCell id="K6FDyAL2HQpZlwJv3CU7-11" value="&lt;span style=&quot;color: rgb(0, 0, 0);&quot;&gt;cache_mmap&lt;/span&gt;" style="rounded=0;whiteSpace=wrap;html=1;" parent="1" vertex="1">
                    <mxGeometry x="335" y="280" width="110" height="70" as="geometry"/>
                </mxCell>
                <mxCell id="K6FDyAL2HQpZlwJv3CU7-14" value="" style="endArrow=classic;html=1;entryX=0;entryY=0.5;entryDx=0;entryDy=0;" parent="1" source="K6FDyAL2HQpZlwJv3CU7-8" target="K6FDyAL2HQpZlwJv3CU7-11" edge="1">
                    <mxGeometry width="50" height="50" relative="1" as="geometry">
                        <mxPoint x="455" y="320" as="sourcePoint"/>
                        <mxPoint x="505" y="270" as="targetPoint"/>
                    </mxGeometry>
                </mxCell>
                <mxCell id="K6FDyAL2HQpZlwJv3CU7-15" value="4.拷贝图像页到缓存页，&lt;div&gt;保证一致&lt;/div&gt;" style="edgeLabel;html=1;align=left;verticalAlign=middle;resizable=0;points=[];" parent="K6FDyAL2HQpZlwJv3CU7-14" vertex="1" connectable="0">
                    <mxGeometry x="-0.1268" y="4" relative="1" as="geometry">
                        <mxPoint x="-51" y="19" as="offset"/>
                    </mxGeometry>
                </mxCell>
                <mxCell id="K6FDyAL2HQpZlwJv3CU7-18" value="fb双缓冲机制实现" style="text;html=1;align=center;verticalAlign=middle;whiteSpace=wrap;rounded=0;" parent="1" vertex="1">
                    <mxGeometry x="75" y="110" width="100" height="30" as="geometry"/>
                </mxCell>
                <mxCell id="K6FDyAL2HQpZlwJv3CU7-19" value="1. 将需要修改的图像写入缓存页&lt;div&gt;2-3. 将缓存页和显示页基于Linux-fb显示机制进行切换，软件将缓存页和图像页互换&lt;/div&gt;&lt;div&gt;4.&lt;span style=&quot;color: rgb(0, 0, 0); background-color: transparent;&quot;&gt;将图像页内容拷贝到缓存页，保证两个页面图像一致&lt;/span&gt;&lt;span style=&quot;background-color: transparent;&quot;&gt;&amp;nbsp;，等待下次写入缓存页&lt;/span&gt;&lt;/div&gt;" style="text;html=1;align=left;verticalAlign=middle;whiteSpace=wrap;rounded=0;fontSize=12;" parent="1" vertex="1">
                    <mxGeometry x="85" y="360" width="290" height="100" as="geometry"/>
                </mxCell>
            </root>
        </mxGraphModel>
    </diagram>
</mxfile>